<svg width="24" height="24" viewBox="0 0 24 24" fill="none" xmlns="http://www.w3.org/2000/svg">
<g clip-path="url(#clip0_5_4592)">
<path d="M0.879958 14.09L4.74997 18C4.84293 18.0937 4.95353 18.1681 5.07539 18.2189C5.19725 18.2696 5.32795 18.2958 5.45997 18.2958C5.59198 18.2958 5.72268 18.2696 5.84454 18.2189C5.9664 18.1681 6.07701 18.0937 6.16997 18C6.35622 17.8126 6.46076 17.5592 6.46076 17.295C6.46076 17.0308 6.35622 16.7773 6.16997 16.59L2.60996 13L23 13C23.2652 13 23.5196 12.8946 23.7071 12.7071C23.8946 12.5195 24 12.2652 24 12C24 11.7347 23.8946 11.4804 23.7071 11.2929C23.5196 11.1053 23.2652 11 23 11L2.54996 11L6.16997 7.38996C6.2637 7.29699 6.33809 7.18639 6.38886 7.06453C6.43963 6.94267 6.46577 6.81197 6.46577 6.67996C6.46577 6.54794 6.43963 6.41724 6.38886 6.29538C6.33809 6.17352 6.2637 6.06292 6.16997 5.96995C6.07701 5.87622 5.9664 5.80183 5.84454 5.75106C5.72269 5.70029 5.59198 5.67416 5.45997 5.67416C5.32795 5.67416 5.19725 5.70029 5.07539 5.75106C4.95353 5.80183 4.84293 5.87622 4.74997 5.96995L0.879958 9.84996C0.318156 10.4125 0.00259843 11.175 0.00259836 11.97C0.00259829 12.765 0.318156 13.5275 0.879958 14.09Z" fill="#ED334A"/>
</g>
<defs>
<clipPath id="clip0_5_4592">
<rect width="24" height="24" fill="white" transform="translate(24 24) rotate(-180)"/>
</clipPath>
</defs>
</svg>
