<svg width="24" height="24" viewBox="0 0 24 24" fill="none" xmlns="http://www.w3.org/2000/svg">
<g clip-path="url(#clip0_1_535)">
<path d="M16.449 13.475C16.449 15.318 14.135 17.588 12.82 18.672C12.289 19.11 11.531 19.11 11 18.672C9.685 17.588 7.449 15.318 7.449 13.475C7.449 12.108 8.456 11 9.699 11C10.942 11 11.949 12.108 11.949 13.475C11.949 12.108 12.956 11 14.199 11C15.442 11 16.449 12.108 16.449 13.475ZM24 7.5V18.5C24 21.533 21.533 24 18.5 24H5.5C2.467 24 0 21.533 0 18.5V7.5C0 4.467 2.467 2 5.5 2H6V1.5C6 0.671 6.671 0 7.5 0C8.329 0 9 0.671 9 1.5V2H15V1.5C15 0.671 15.671 0 16.5 0C17.329 0 18 0.671 18 1.5V2H18.5C21.533 2 24 4.467 24 7.5ZM21 18.5V9H3V18.5C3 19.878 4.122 21 5.5 21H18.5C19.878 21 21 19.878 21 18.5Z" fill="#ED334A"/>
</g>
<defs>
<clipPath id="clip0_1_535">
<rect width="24" height="24" fill="white"/>
</clipPath>
</defs>
</svg>
