<svg width="38" height="38" viewBox="0 0 38 38" fill="none" xmlns="http://www.w3.org/2000/svg">
<g filter="url(#filter0_d_32_1078)">
<rect x="4" y="2" width="30" height="30" rx="15" fill="black" fill-opacity="0.15" shape-rendering="crispEdges"/>
<path fill-rule="evenodd" clip-rule="evenodd" d="M19 6.25C19.4142 6.25 19.75 6.58579 19.75 7V9C19.75 9.41421 19.4142 9.75 19 9.75C18.5858 9.75 18.25 9.41421 18.25 9V7C18.25 6.58579 18.5858 6.25 19 6.25ZM12.4697 10.4697C12.7626 10.1768 13.2374 10.1768 13.5303 10.4697L13.8736 10.8129C14.1665 11.1058 14.1665 11.5807 13.8736 11.8736C13.5807 12.1665 13.1058 12.1665 12.8129 11.8736L12.4697 11.5303C12.1768 11.2374 12.1768 10.7626 12.4697 10.4697ZM25.5303 10.4697C25.8232 10.7626 25.8232 11.2374 25.5303 11.5303L25.1871 11.8736C24.8942 12.1665 24.4193 12.1665 24.1264 11.8736C23.8335 11.5807 23.8335 11.1058 24.1264 10.8129L24.4697 10.4697C24.7626 10.1768 25.2374 10.1768 25.5303 10.4697ZM8.25 17C8.25 16.5858 8.58579 16.25 9 16.25H11C11.4142 16.25 11.75 16.5858 11.75 17C11.75 17.4142 11.4142 17.75 11 17.75H9C8.58579 17.75 8.25 17.4142 8.25 17ZM26.25 17C26.25 16.5858 26.5858 16.25 27 16.25H29C29.4142 16.25 29.75 16.5858 29.75 17C29.75 17.4142 29.4142 17.75 29 17.75H27C26.5858 17.75 26.25 17.4142 26.25 17ZM13.8734 22.1266C14.1663 22.4195 14.1663 22.8944 13.8734 23.1873L13.5303 23.5303C13.2374 23.8232 12.7626 23.8232 12.4697 23.5303C12.1768 23.2374 12.1768 22.7626 12.4697 22.4697L12.8127 22.1266C13.1056 21.8337 13.5805 21.8337 13.8734 22.1266ZM24.1266 22.1266C24.4195 21.8337 24.8944 21.8337 25.1873 22.1266L25.5303 22.4697C25.8232 22.7626 25.8232 23.2374 25.5303 23.5303C25.2374 23.8232 24.7626 23.8232 24.4697 23.5303L24.1266 23.1873C23.8337 22.8944 23.8337 22.4195 24.1266 22.1266ZM19 24.25C19.4142 24.25 19.75 24.5858 19.75 25V27C19.75 27.4142 19.4142 27.75 19 27.75C18.5858 27.75 18.25 27.4142 18.25 27V25C18.25 24.5858 18.5858 24.25 19 24.25Z" fill="#FF6B6B"/>
<path d="M14 16.0595C14 18.6018 16.0097 19.9566 17.4809 21.1692C18 21.5971 18.5 22 19 22C19.5 22 20 21.5971 20.5191 21.1692C21.9903 19.9566 24 18.6018 24 16.0595C24 13.5172 21.2499 11.7142 19 14.1584C16.7501 11.7142 14 13.5172 14 16.0595Z" fill="#FF6B6B"/>
</g>
<defs>
<filter id="filter0_d_32_1078" x="0" y="0" width="38" height="38" filterUnits="userSpaceOnUse" color-interpolation-filters="sRGB">
<feFlood flood-opacity="0" result="BackgroundImageFix"/>
<feColorMatrix in="SourceAlpha" type="matrix" values="0 0 0 0 0 0 0 0 0 0 0 0 0 0 0 0 0 0 127 0" result="hardAlpha"/>
<feOffset dy="2"/>
<feGaussianBlur stdDeviation="2"/>
<feComposite in2="hardAlpha" operator="out"/>
<feColorMatrix type="matrix" values="0 0 0 0 0 0 0 0 0 0 0 0 0 0 0 0 0 0 0.05 0"/>
<feBlend mode="normal" in2="BackgroundImageFix" result="effect1_dropShadow_32_1078"/>
<feBlend mode="normal" in="SourceGraphic" in2="effect1_dropShadow_32_1078" result="shape"/>
</filter>
</defs>
</svg>
