<svg width="32" height="28" viewBox="0 0 32 28" fill="none" xmlns="http://www.w3.org/2000/svg">
<g filter="url(#filter0_d_39_1186)">
<path d="M26.9997 11.9343L22.9966 3.51306L21.1816 3L25.1868 11.1558L26.9997 11.9343Z" fill="#8CAB38"/>
<path d="M9.12695 19.3584L10.7778 20.4093C10.7778 20.4093 12.6639 18.6716 14.9464 17.7565C17.5703 16.7049 20.7486 16.1883 22.6967 15.1367C25.0199 13.883 26.9998 11.9336 26.9998 11.9336L25.1861 11.155L13.8796 15.0043L9.12695 19.3577V19.3584Z" fill="#74941F"/>
<path d="M25.1871 11.1558C20.9544 15.4899 13.5592 14.4479 9.1272 19.3585C7.57286 16.7353 6.63502 13.8755 5 11.3296C10.1837 6.86653 17.1644 7.77197 21.1819 3C22.7404 5.61424 23.732 8.40087 25.1871 11.1558Z" fill="#A7C750"/>
<path d="M19.7098 4.91025C17.6852 6.89489 8.94737 8.65817 6.96204 10.147C5.66561 11.0104 5.50977 11.3434 5.50977 11.3434C7.11099 13.6149 7.80886 16.3692 9.26183 18.7786C10.0769 18.04 8.41984 19.562 9.52043 18.549C10.6217 17.536 8.62534 19.353 10.6831 17.4711C12.7408 15.5892 21.1483 14.2818 24.57 11.2552C23.6246 8.46578 22.2378 6.18599 21.0718 3.56761C21.0883 3.55175 20.2546 4.35237 19.7091 4.91025H19.7098ZM23.1985 8.55197C23.1729 8.71954 23.1474 8.88781 23.1233 9.05538C23.4226 9.74428 23.7956 10.389 24.2046 11.0186C22.6633 12.1965 21.2386 12.9205 19.263 13.5439C19.1554 13.6715 18.9975 13.9073 18.8892 14.0349C17.2694 14.6073 15.7881 15.0948 14.2669 15.6589C14.1028 15.6086 13.9373 15.5596 13.7724 15.5106C12.0036 16.014 10.7369 16.7547 9.37285 17.9773C8.82532 17.0726 8.30054 16.1513 7.91437 15.1638C7.78197 15.0755 7.65094 14.9865 7.51854 14.8983C7.38545 14.5376 7.25512 14.1756 7.12065 13.8156C7.15444 13.6501 7.18616 13.4846 7.21719 13.3184C6.93377 12.6219 6.55794 11.9882 6.15246 11.3579C7.67853 10.0408 9.21287 9.43741 11.1506 8.87608C11.2575 8.75264 11.3354 8.60094 11.443 8.47819C13.0022 8.06374 14.5434 7.42794 16.0908 6.97281C16.2522 7.02108 16.4812 7.15349 16.6432 7.199C18.4113 6.6294 19.605 5.70672 20.9207 4.43305C21.4531 5.34193 21.9524 6.26667 22.3682 7.23486C22.502 7.3183 22.6351 7.40243 22.7688 7.48587C22.9116 7.8417 23.0516 8.1989 23.1978 8.55266L23.1985 8.55197Z" fill="#64801B"/>
<path d="M16.5594 11.5579C16.3856 11.031 15.8036 11.0014 15.3581 10.9441C15.0243 10.9014 14.6616 10.971 14.5195 10.6297C14.392 10.3228 14.6926 10.1994 14.9588 10.1311C15.1891 10.0725 15.4843 10.0739 15.727 10.1125C15.7408 9.97941 15.7456 9.84563 15.7546 9.71185C15.4732 9.67668 15.2029 9.68771 14.923 9.73046C14.8857 9.62978 14.8478 9.52841 14.8106 9.42773C14.6354 9.47118 14.4596 9.51393 14.2844 9.55669C14.3244 9.67116 14.3727 9.78356 14.4065 9.89941C14.0224 10.1656 13.7417 10.3256 13.9203 10.8393C14.0872 11.3193 14.6844 11.3462 15.1112 11.3938C15.4312 11.4296 15.827 11.382 15.9387 11.7517C16.0449 12.1033 15.7353 12.2323 15.3953 12.3047C15.1616 12.3544 14.7644 12.3688 14.5051 12.3068C14.4851 12.4468 14.4864 12.5854 14.4761 12.7254C14.805 12.7647 15.1195 12.7488 15.4457 12.6957C15.4829 12.7964 15.5201 12.8971 15.5574 12.9977C15.7346 12.955 15.9118 12.9115 16.0891 12.8688C16.0491 12.7564 16.0035 12.6495 15.9677 12.533C16.4056 12.3261 16.7255 12.064 16.5587 11.5572L16.5594 11.5579Z" fill="#64801B"/>
<path d="M16.2388 14.0451C14.652 14.4305 12.8984 13.5589 12.3343 12.0135C11.7709 10.4682 12.6391 9.00968 14.2238 8.62764C15.8084 8.24492 17.5435 9.10898 18.1296 10.6502C18.7158 12.1914 17.8255 13.6596 16.2388 14.0444V14.0451ZM14.3417 8.94003C12.9391 9.27793 12.1681 10.5647 12.6681 11.9342C13.168 13.3038 14.7168 14.0706 16.1229 13.7334C17.529 13.3962 18.3137 12.097 17.7972 10.733C17.2807 9.36895 15.745 8.60282 14.3424 8.94072L14.3417 8.94003Z" fill="#64801B"/>
<path d="M20.0401 8.56857C19.5084 8.86992 19.2905 9.47331 19.5015 10.0367C19.7126 10.5994 20.2953 10.847 20.8269 10.5263C21.3586 10.2057 21.5579 9.57192 21.3269 8.99404C21.0959 8.41617 20.5711 8.26722 20.0394 8.56857H20.0401ZM20.7538 10.3525C20.3201 10.6111 19.8794 10.4346 19.7022 9.97326C19.5257 9.51193 19.7008 9.03473 20.1277 8.78234C20.5545 8.53064 20.9745 8.66304 21.16 9.12576C21.3462 9.58916 21.1869 10.0933 20.7531 10.3518L20.7538 10.3525Z" fill="#64801B"/>
<path d="M20.2583 9.10022C19.9956 9.26435 19.8901 9.59052 20.0053 9.87395C20.1204 10.1574 20.3907 10.238 20.6555 10.085C20.9203 9.93187 21.0245 9.59604 20.9079 9.31469C20.7921 9.03264 20.5211 8.93679 20.2583 9.10022Z" fill="#64801B"/>
<path d="M21.0994 6.25281C20.085 7.10997 19.0051 7.80853 17.7425 8.24021C17.7018 8.14574 17.6618 8.05126 17.6211 7.95748C18.8768 7.52924 19.936 6.80448 20.9408 5.95215C20.9946 6.05214 21.0477 6.15213 21.0994 6.25281Z" fill="#64801B"/>
<path d="M22.5289 10.5151C21.7007 11.1854 20.796 11.7378 19.7871 12.0922C19.8168 12.1612 19.8464 12.2301 19.8761 12.2984C20.8829 11.9309 21.7986 11.3751 22.6248 10.6958C22.5931 10.6358 22.5606 10.5751 22.5289 10.5151Z" fill="#C6E673"/>
<path d="M22.7453 10.9219C21.915 11.6128 20.9923 12.1583 19.9883 12.5562C20.0186 12.6245 20.0483 12.6927 20.0786 12.761C21.0889 12.35 22.0164 11.8087 22.8452 11.0991C22.8115 11.0405 22.7777 10.9819 22.7446 10.9219H22.7453Z" fill="#C6E673"/>
<path d="M9.46324 11.6392C8.92467 11.8785 8.66262 12.4695 8.8695 13.0266C9.07638 13.5838 9.61495 13.759 10.1625 13.5232C10.71 13.2873 11.0196 12.7867 10.8114 12.2116C10.6031 11.6364 10.0018 11.3999 9.46393 11.6392H9.46324ZM10.0763 13.3094C9.62046 13.4901 9.21912 13.3728 9.04672 12.9142C8.87364 12.4557 9.10327 12.004 9.5315 11.8109C9.95974 11.6178 10.4445 11.804 10.6038 12.2653C10.7631 12.726 10.5314 13.1294 10.0763 13.3101V13.3094Z" fill="#64801B"/>
<path d="M9.62792 12.0701C9.35553 12.1874 9.2114 12.4666 9.31484 12.7508C9.41897 13.0356 9.68447 13.0776 9.95892 12.99C10.2327 12.9025 10.3996 12.6294 10.2982 12.348C10.1968 12.0667 9.90031 11.9529 9.62792 12.0701Z" fill="#64801B"/>
<path d="M10.9906 9.99869C9.66244 10.3931 8.42186 10.9869 7.31024 11.8165C7.26956 11.7434 7.22888 11.6709 7.1875 11.5985C8.30395 10.7469 9.54797 10.1538 10.8837 9.73389C10.9189 9.82215 10.9547 9.91042 10.9899 9.99869H10.9906Z" fill="#64801B"/>
<path d="M12.0591 14.123C11.0744 14.4203 10.1483 14.845 9.30078 15.4312C9.33871 15.5133 9.37802 15.5946 9.41732 15.6753C10.2586 15.094 11.1737 14.6527 12.1515 14.3527C12.1205 14.2761 12.0895 14.1996 12.0585 14.123H12.0591Z" fill="#C6E673"/>
<path d="M12.2695 14.6396C11.3006 14.9451 10.3904 15.3816 9.56836 15.9802C9.60905 16.0609 9.6518 16.1395 9.69525 16.2195C10.5028 15.6127 11.4054 15.1775 12.3653 14.8693C12.3336 14.7927 12.3012 14.7169 12.2702 14.6403L12.2695 14.6396Z" fill="#C6E673"/>
</g>
<defs>
<filter id="filter0_d_39_1186" x="0.111111" y="0.555556" width="31.7778" height="27.1872" filterUnits="userSpaceOnUse" color-interpolation-filters="sRGB">
<feFlood flood-opacity="0" result="BackgroundImageFix"/>
<feColorMatrix in="SourceAlpha" type="matrix" values="0 0 0 0 0 0 0 0 0 0 0 0 0 0 0 0 0 0 127 0" result="hardAlpha"/>
<feOffset dy="2.44444"/>
<feGaussianBlur stdDeviation="2.44444"/>
<feComposite in2="hardAlpha" operator="out"/>
<feColorMatrix type="matrix" values="0 0 0 0 0 0 0 0 0 0 0 0 0 0 0 0 0 0 0.05 0"/>
<feBlend mode="normal" in2="BackgroundImageFix" result="effect1_dropShadow_39_1186"/>
<feBlend mode="normal" in="SourceGraphic" in2="effect1_dropShadow_39_1186" result="shape"/>
</filter>
</defs>
</svg>
