<svg width="20" height="20" viewBox="0 0 20 20" fill="none" xmlns="http://www.w3.org/2000/svg">
<path fill-rule="evenodd" clip-rule="evenodd" d="M10.0002 1.04175C7.8141 1.04175 6.04189 2.81395 6.04189 5.00008C6.04189 7.18621 7.8141 8.95841 10.0002 8.95841C12.1863 8.95841 13.9586 7.18621 13.9586 5.00008C13.9586 2.81395 12.1863 1.04175 10.0002 1.04175ZM7.29189 5.00008C7.29189 3.50431 8.50445 2.29175 10.0002 2.29175C11.496 2.29175 12.7086 3.50431 12.7086 5.00008C12.7086 6.49585 11.496 7.70841 10.0002 7.70841C8.50445 7.70841 7.29189 6.49585 7.29189 5.00008Z" fill="#FF6B6B"/>
<path fill-rule="evenodd" clip-rule="evenodd" d="M6.66689 10.2084C4.92436 10.2084 3.45767 11.5127 3.25407 13.2433L2.71284 17.8437C2.67251 18.1865 2.91772 18.4971 3.26053 18.5375C3.60334 18.5778 3.91394 18.3326 3.95428 17.9898L4.49551 13.3893C4.59974 12.5033 5.22428 11.793 6.04189 11.5493L6.04189 15.0434C6.04186 15.7921 6.04184 16.4165 6.10848 16.9121C6.17882 17.4353 6.33354 17.9076 6.7131 18.2872C7.09266 18.6668 7.56499 18.8215 8.08816 18.8918C8.5838 18.9585 9.20814 18.9584 9.95687 18.9584H10.0436C10.7923 18.9584 11.4166 18.9585 11.9123 18.8918C12.4355 18.8215 12.9078 18.6668 13.2873 18.2872C13.6669 17.9076 13.8216 17.4353 13.892 16.9121C13.9586 16.4165 13.9586 15.7922 13.9586 15.0434L13.9586 11.5493C14.7762 11.793 15.4007 12.5033 15.5049 13.3893L16.0462 17.9898C16.0865 18.3326 16.3971 18.5778 16.7399 18.5375C17.0827 18.4971 17.3279 18.1865 17.2876 17.8437L16.7464 13.2433C16.5428 11.5127 15.0761 10.2084 13.3336 10.2084H6.66689ZM7.29189 15.0001V11.4584H12.7086V15.0001C12.7086 15.8034 12.7072 16.3431 12.6531 16.7456C12.6014 17.1301 12.5121 17.2947 12.4035 17.4033C12.2949 17.5119 12.1303 17.6013 11.7457 17.653C11.3432 17.7071 10.8036 17.7084 10.0002 17.7084C9.19688 17.7084 8.65725 17.7071 8.25472 17.653C7.87016 17.6013 7.70558 17.5119 7.59699 17.4033C7.48839 17.2947 7.39904 17.1301 7.34734 16.7456C7.29322 16.3431 7.29189 15.8034 7.29189 15.0001Z" fill="#FF6B6B"/>
</svg>
