<svg width="20" height="20" viewBox="0 0 20 20" fill="none" xmlns="http://www.w3.org/2000/svg">
<path fill-rule="evenodd" clip-rule="evenodd" d="M18.9586 5.83317C18.9586 3.18681 16.8133 1.0415 14.167 1.0415C11.5206 1.0415 9.3753 3.18681 9.3753 5.83317C9.3753 6.59856 9.55522 7.32372 9.87563 7.96702C9.88281 7.98142 9.88561 7.993 9.88648 8.00001C9.88688 8.00329 9.88684 8.00524 9.88679 8.00604L9.63884 8.93273C9.4068 9.79995 10.2002 10.5933 11.0674 10.3613L11.9941 10.1134C11.9929 10.1137 11.9933 10.1134 11.9941 10.1134C11.9949 10.1133 11.9968 10.1133 12.0001 10.1137C12.0071 10.1145 12.0187 10.1173 12.0331 10.1245C12.6764 10.4449 13.4016 10.6248 14.167 10.6248C16.8133 10.6248 18.9586 8.47953 18.9586 5.83317ZM11.9949 10.1131L11.9941 10.1134ZM14.167 2.2915C16.123 2.2915 17.7086 3.87716 17.7086 5.83317C17.7086 7.78918 16.123 9.37484 14.167 9.37484C13.5993 9.37484 13.0645 9.24174 12.5904 9.00562C12.3244 8.87311 11.9984 8.81822 11.6718 8.90561L10.8836 9.1165L11.0945 8.3283C11.1819 8.0017 11.127 7.67575 10.9945 7.40972C10.7584 6.93565 10.6253 6.40085 10.6253 5.83317C10.6253 3.87716 12.211 2.2915 14.167 2.2915Z" fill="#FF6B6B"/>
<path fill-rule="evenodd" clip-rule="evenodd" d="M2.50653 5.33892C3.90659 3.93886 6.26921 4.0453 7.24406 5.79206L7.7849 6.76117C8.4215 7.90186 8.15022 9.34109 7.2183 10.2844C7.20589 10.3014 7.14011 10.3972 7.13191 10.5645C7.12146 10.7781 7.19732 11.2721 7.96267 12.0375C8.72778 12.8026 9.2217 12.8786 9.43539 12.8682C9.60287 12.8601 9.69872 12.7943 9.71575 12.7818C10.6591 11.8499 12.0983 11.5786 13.239 12.2152L14.2081 12.7561C15.9548 13.7309 16.0613 16.0935 14.6612 17.4936C13.9123 18.2425 12.9166 18.9079 11.7464 18.9523C10.0123 19.018 7.13293 18.5702 4.28145 15.7187C1.42996 12.8672 0.98214 9.98784 1.04788 8.25373C1.09224 7.08357 1.75765 6.0878 2.50653 5.33892ZM6.15253 6.40123C5.65335 5.50677 4.31194 5.30128 3.39042 6.2228C2.7443 6.86893 2.32424 7.58211 2.29698 8.30109C2.24216 9.7472 2.59919 12.2687 5.16533 14.8348C7.73147 17.4009 10.2529 17.758 11.6991 17.7032C12.418 17.6759 13.1312 17.2558 13.7773 16.6097C14.6989 15.6882 14.4934 14.3468 13.5989 13.8476L12.6298 13.3068C12.027 12.9703 11.1802 13.0851 10.5858 13.6795C10.5274 13.7378 10.1557 14.0847 9.49612 14.1167C8.82094 14.1496 8.00366 13.8462 7.07879 12.9213C6.15362 11.9962 5.85035 11.1787 5.88341 10.5034C5.91571 9.8438 6.26256 9.47246 6.3206 9.41442C6.91502 8.81999 7.02982 7.97318 6.69338 7.37033L6.15253 6.40123Z" fill="#FF6B6B"/>
</svg>
