<svg width="38" height="38" viewBox="0 0 38 38" fill="none" xmlns="http://www.w3.org/2000/svg">
<g filter="url(#filter0_d_55_1213)">
<rect x="4" y="2" width="30" height="30" rx="15" fill="#2196F3"/>
<path fill-rule="evenodd" clip-rule="evenodd" d="M14.7164 8.04163C14.7412 8.04164 14.7663 8.04164 14.7918 8.04164L14.8226 8.04164C15.1155 8.04162 15.3039 8.04161 15.4882 8.05883C16.2397 8.12911 16.9546 8.41271 17.5492 8.87497H22.7503C22.7667 8.87497 22.7827 8.87497 22.7986 8.87497C23.1391 8.87491 23.3711 8.87487 23.5749 8.90171C24.9772 9.08632 26.0807 10.1898 26.2653 11.5921C26.2722 11.6449 26.2774 11.6997 26.2812 11.7577C26.5124 11.8631 26.7265 11.9994 26.9234 12.1765C27.0054 12.2502 27.0834 12.3282 27.1571 12.4102C27.5974 12.8997 27.7855 13.4955 27.8736 14.1966C27.9587 14.8732 27.9587 15.7284 27.9587 16.7891V18.7136C27.9587 20.2451 27.9587 21.4581 27.8311 22.4075C27.6997 23.3845 27.4229 24.1753 26.7993 24.7989C26.1757 25.4226 25.3849 25.6993 24.4079 25.8307C23.4585 25.9583 22.2455 25.9583 20.714 25.9583H17.2867C15.7552 25.9583 14.5422 25.9583 13.5928 25.8307C12.6158 25.6993 11.825 25.4226 11.2014 24.7989C10.5777 24.1753 10.301 23.3845 10.1696 22.4075C10.042 21.4581 10.042 20.2451 10.042 18.7137L10.042 12.7914C10.042 12.766 10.042 12.7408 10.042 12.716C10.0419 12.0528 10.0418 11.6307 10.1106 11.2661C10.4127 9.66486 11.6652 8.41238 13.2665 8.11027C13.631 8.04148 14.0531 8.04154 14.7164 8.04163ZM24.9565 11.4397C24.7416 10.7524 24.1447 10.2375 23.4117 10.141C23.3001 10.1263 23.1572 10.125 22.7503 10.125H18.8431C19.3788 10.6575 19.6219 10.8799 19.8976 11.0333C20.0793 11.1344 20.272 11.2142 20.472 11.2712C20.8164 11.3694 21.194 11.375 22.1907 11.375L22.5445 11.375C23.5131 11.375 24.3102 11.3749 24.9565 11.4397ZM14.7918 9.29164C14.0279 9.29164 13.7326 9.29437 13.4982 9.3386C12.4026 9.5453 11.5457 10.4023 11.339 11.4978C11.2947 11.7322 11.292 12.0276 11.292 12.7914V18.6666C11.292 20.2557 11.2933 21.3845 11.4085 22.2409C11.5212 23.0793 11.7326 23.5624 12.0853 23.9151C12.4379 24.2677 12.921 24.4791 13.7594 24.5918C14.6158 24.707 15.7447 24.7083 17.3337 24.7083H20.667C22.256 24.7083 23.3849 24.707 24.2413 24.5918C25.0797 24.4791 25.5627 24.2677 25.9154 23.9151C26.2681 23.5624 26.4795 23.0793 26.5922 22.2409C26.7073 21.3845 26.7087 20.2557 26.7087 18.6666V16.8316C26.7087 15.7184 26.7075 14.942 26.6334 14.3526C26.5613 13.7787 26.4288 13.4696 26.2278 13.2461C26.1835 13.1969 26.1367 13.1501 26.0875 13.1059C25.8641 12.9049 25.555 12.7724 24.9811 12.7002C24.3916 12.6261 23.6153 12.625 22.5021 12.625H22.1907C22.1597 12.625 22.1291 12.625 22.0988 12.625C21.2255 12.6252 20.6623 12.6253 20.1293 12.4733C19.8371 12.3901 19.5554 12.2734 19.2899 12.1257C18.8056 11.8562 18.4074 11.4579 17.79 10.8402C17.7686 10.8188 17.747 10.7972 17.7251 10.7752L17.2665 10.3167C17.0305 10.0806 16.9401 9.99122 16.8481 9.91491C16.4287 9.56724 15.9142 9.35413 15.3718 9.3034C15.2527 9.29227 15.1256 9.29164 14.7918 9.29164ZM19.2087 15.3333C19.2087 14.9881 19.4885 14.7083 19.8337 14.7083H24.0003C24.3455 14.7083 24.6253 14.9881 24.6253 15.3333C24.6253 15.6785 24.3455 15.9583 24.0003 15.9583H19.8337C19.4885 15.9583 19.2087 15.6785 19.2087 15.3333Z" fill="white"/>
</g>
<defs>
<filter id="filter0_d_55_1213" x="0" y="0" width="38" height="38" filterUnits="userSpaceOnUse" color-interpolation-filters="sRGB">
<feFlood flood-opacity="0" result="BackgroundImageFix"/>
<feColorMatrix in="SourceAlpha" type="matrix" values="0 0 0 0 0 0 0 0 0 0 0 0 0 0 0 0 0 0 127 0" result="hardAlpha"/>
<feOffset dy="2"/>
<feGaussianBlur stdDeviation="2"/>
<feComposite in2="hardAlpha" operator="out"/>
<feColorMatrix type="matrix" values="0 0 0 0 0 0 0 0 0 0 0 0 0 0 0 0 0 0 0.05 0"/>
<feBlend mode="normal" in2="BackgroundImageFix" result="effect1_dropShadow_55_1213"/>
<feBlend mode="normal" in="SourceGraphic" in2="effect1_dropShadow_55_1213" result="shape"/>
</filter>
</defs>
</svg>
