<svg width="20" height="20" viewBox="0 0 20 20" fill="none" xmlns="http://www.w3.org/2000/svg">
<path fill-rule="evenodd" clip-rule="evenodd" d="M8.28616 1.04175L8.33317 1.04175C8.67835 1.04175 8.95817 1.32157 8.95817 1.66675C8.95817 2.01193 8.67835 2.29175 8.33317 2.29175C6.74415 2.29175 5.61527 2.29308 4.75888 2.40821C3.92047 2.52094 3.43743 2.73233 3.08476 3.085C2.73208 3.43768 2.52069 3.92071 2.40797 4.75912C2.29283 5.61551 2.2915 6.7444 2.2915 8.33341C2.2915 8.67859 2.01168 8.95842 1.6665 8.95842C1.32133 8.95842 1.0415 8.67859 1.0415 8.33341L1.0415 8.2864C1.04149 6.75493 1.04148 5.54191 1.16912 4.59256C1.30047 3.61554 1.57724 2.82475 2.20087 2.20112C2.82451 1.57748 3.6153 1.30072 4.59232 1.16936C5.54166 1.04172 6.75469 1.04174 8.28616 1.04175ZM15.2408 2.40821C14.3844 2.29308 13.2555 2.29175 11.6665 2.29175C11.3213 2.29175 11.0415 2.01193 11.0415 1.66675C11.0415 1.32157 11.3213 1.04175 11.6665 1.04175L11.7135 1.04175C13.245 1.04174 14.458 1.04172 15.4074 1.16936C16.3844 1.30072 17.1752 1.57748 17.7988 2.20112C18.4224 2.82475 18.6992 3.61554 18.8306 4.59256C18.9582 5.54191 18.9582 6.75494 18.9582 8.28641V8.33342C18.9582 8.67859 18.6783 8.95842 18.3332 8.95842C17.988 8.95842 17.7082 8.67859 17.7082 8.33342C17.7082 6.7444 17.7068 5.61551 17.5917 4.75912C17.479 3.92071 17.2676 3.43768 16.9149 3.085C16.5622 2.73233 16.0792 2.52094 15.2408 2.40821ZM1.6665 11.0417C2.01168 11.0417 2.2915 11.3216 2.2915 11.6667C2.2915 13.2558 2.29283 14.3847 2.40797 15.241C2.52069 16.0794 2.73208 16.5625 3.08476 16.9152C3.43743 17.2678 3.92047 17.4792 4.75888 17.5919C5.61527 17.7071 6.74415 17.7084 8.33317 17.7084C8.67835 17.7084 8.95817 17.9882 8.95817 18.3334C8.95817 18.6786 8.67835 18.9584 8.33317 18.9584H8.28616C6.75469 18.9584 5.54166 18.9584 4.59232 18.8308C3.6153 18.6994 2.82451 18.4227 2.20087 17.799C1.57724 17.1754 1.30047 16.3846 1.16912 15.4076C1.04148 14.4583 1.04149 13.2452 1.0415 11.7138L1.0415 11.6667C1.0415 11.3216 1.32133 11.0417 1.6665 11.0417ZM18.3332 11.0417C18.6783 11.0417 18.9582 11.3216 18.9582 11.6667V11.7138C18.9582 13.2452 18.9582 14.4583 18.8306 15.4076C18.6992 16.3846 18.4224 17.1754 17.7988 17.799C17.1752 18.4227 16.3844 18.6994 15.4074 18.8308C14.458 18.9584 13.245 18.9584 11.7135 18.9584H11.6665C11.3213 18.9584 11.0415 18.6786 11.0415 18.3334C11.0415 17.9882 11.3213 17.7084 11.6665 17.7084C13.2555 17.7084 14.3844 17.7071 15.2408 17.5919C16.0792 17.4792 16.5622 17.2678 16.9149 16.9152C17.2676 16.5625 17.479 16.0794 17.5917 15.241C17.7068 14.3847 17.7082 13.2558 17.7082 11.6667C17.7082 11.3216 17.988 11.0417 18.3332 11.0417Z" fill="#FF6B6B"/>
</svg>
