<svg width="20" height="20" viewBox="0 0 20 20" fill="none" xmlns="http://www.w3.org/2000/svg">
<path fill-rule="evenodd" clip-rule="evenodd" d="M13.5415 1.66675C13.5415 1.32157 13.8213 1.04175 14.1665 1.04175H18.3332C18.6783 1.04175 18.9582 1.32157 18.9582 1.66675V5.83341C18.9582 6.17859 18.6783 6.45841 18.3332 6.45841C17.988 6.45841 17.7082 6.17859 17.7082 5.83341V3.17563L13.9122 6.97156C14.9809 8.2401 15.6248 9.87822 15.6248 11.6667C15.6248 15.6938 12.3602 18.9584 8.33317 18.9584C4.30609 18.9584 1.0415 15.6938 1.0415 11.6667C1.0415 7.63967 4.30609 4.37508 8.33317 4.37508C10.1217 4.37508 11.7598 5.01901 13.0284 6.08768L16.8243 2.29175H14.1665C13.8213 2.29175 13.5415 2.01193 13.5415 1.66675ZM8.33317 5.62508C4.99645 5.62508 2.2915 8.33003 2.2915 11.6667C2.2915 15.0035 4.99645 17.7084 8.33317 17.7084C11.6699 17.7084 14.3748 15.0035 14.3748 11.6667C14.3748 8.33003 11.6699 5.62508 8.33317 5.62508Z" fill="#FF6B6B"/>
</svg>
