<svg width="36" height="27" viewBox="0 0 36 27" fill="none" xmlns="http://www.w3.org/2000/svg">
<path d="M35.2892 1.81841L28.185 0.0344797C27.622 -0.107603 27.3799 0.202874 27.643 0.718582L28.9902 3.36553L20.2652 7.94902C18.2024 5.25471 14.9555 3.51288 11.2982 3.51288C5.05183 3.50762 0 8.56471 0 14.8006C0 21.0364 5.05183 26.0883 11.2877 26.0883C17.5236 26.0883 22.5754 21.0364 22.5754 14.8006C22.5754 13.8323 22.4544 12.8903 22.2228 11.9958L31.0214 7.37543L32.3844 10.054C32.6475 10.5697 33.0316 10.5486 33.2421 10.0119L35.9312 3.06032C36.1417 2.5183 35.8522 1.96575 35.2892 1.82367V1.81841ZM11.2877 21.5732C7.54618 21.5732 4.51508 18.5421 4.51508 14.8006C4.51508 11.0591 7.54618 8.02796 11.2877 8.02796C15.0292 8.02796 18.0603 11.0591 18.0603 14.8006C18.0603 18.5421 15.0292 21.5732 11.2877 21.5732Z" fill="#61B4E7"/>
</svg>
