<svg width="36" height="26" viewBox="0 0 36 26" fill="none" xmlns="http://www.w3.org/2000/svg">
<path d="M24.6578 0C18.422 0 13.3702 5.05183 13.3702 11.2877C13.3702 12.2454 13.4912 13.1769 13.7175 14.0662L8.64458 16.65L7.33953 13.9925C7.08693 13.4716 6.45545 13.2611 5.93974 13.5242L3.8506 14.5872C3.33489 14.8503 3.11914 15.4923 3.37699 16.008L4.68205 18.6655L0.582699 20.7494C0.0669908 21.0125 -0.14877 21.6545 0.109085 22.1702L1.16155 24.3172C1.41414 24.8382 2.04562 25.0487 2.56133 24.7856L6.66595 22.6964L7.971 25.3592C8.2236 25.8801 8.85508 26.0906 9.37078 25.8275L11.4599 24.7645C11.9756 24.5014 12.1914 23.8594 11.9335 23.3437L10.6285 20.6809L15.6751 18.1129C17.7379 20.823 20.9953 22.5701 24.6631 22.5701C30.899 22.5701 35.9508 17.5183 35.9508 11.2824C35.9508 5.04657 30.8937 0 24.6578 0ZM24.6578 18.0603C20.9163 18.0603 17.8852 15.0292 17.8852 11.2877C17.8852 7.54618 20.9163 4.51508 24.6578 4.51508C28.3994 4.51508 31.4305 7.54618 31.4305 11.2877C31.4305 15.0292 28.3994 18.0603 24.6578 18.0603Z" fill="#ED69A7"/>
</svg>
