<svg width="24" height="24" viewBox="0 0 24 24" fill="none" xmlns="http://www.w3.org/2000/svg">
<g clip-path="url(#clip0_0_2451)">
<path d="M17 7C17 7.553 16.552 8 16 8H13V15C13 15.553 12.552 16 12 16C11.448 16 11 15.553 11 15V8H8C7.448 8 7 7.553 7 7C7 6.447 7.448 6 8 6H16C16.552 6 17 6.447 17 7ZM24 4V16C24 18.206 22.206 20 20 20H17.148L13.301 23.18C12.939 23.502 12.476 23.665 12.009 23.665C11.533 23.665 11.053 23.496 10.671 23.156L6.923 20H4C1.794 20 0 18.206 0 16V4C0 1.794 1.794 0 4 0H20C22.206 0 24 1.794 24 4ZM22 4C22 2.897 21.103 2 20 2H4C2.897 2 2 2.897 2 4V16C2 17.103 2.897 18 4 18H7.289C7.525 18 7.753 18.083 7.933 18.235L11.98 21.644L16.152 18.229C16.331 18.081 16.557 18 16.789 18H20C21.103 18 22 17.103 22 16V4Z" fill="#FE97B3"/>
</g>
<defs>
<clipPath id="clip0_0_2451">
<rect width="24" height="24" fill="white"/>
</clipPath>
</defs>
</svg>
