<svg width="20" height="20" viewBox="0 0 20 20" fill="none" xmlns="http://www.w3.org/2000/svg">
<path fill-rule="evenodd" clip-rule="evenodd" d="M9.12079 1.04175H10.8789C12.0186 1.04173 12.9372 1.04172 13.6596 1.13885C14.4097 1.2397 15.0413 1.45544 15.5429 1.95704C15.8764 2.29054 16.0835 2.6815 16.2146 3.12654C16.3908 3.12927 16.538 3.13696 16.6735 3.15843C17.8324 3.34197 18.7413 4.25086 18.9248 5.40974C18.9584 5.62132 18.9583 5.8614 18.9582 6.19615C18.9582 6.21386 18.9582 6.23183 18.9582 6.25008V13.7501C18.9582 13.7683 18.9582 13.7863 18.9582 13.804C18.9583 14.1388 18.9584 14.3788 18.9248 14.5904C18.7413 15.7493 17.8324 16.6582 16.6735 16.8417C16.538 16.8632 16.3908 16.8709 16.2146 16.8736C16.0835 17.3187 15.8764 17.7096 15.5429 18.0431C15.0413 18.5447 14.4097 18.7605 13.6596 18.8613C12.9372 18.9584 12.0186 18.9584 10.8789 18.9584H9.1208C7.98114 18.9584 7.06254 18.9584 6.34006 18.8613C5.58997 18.7605 4.95841 18.5447 4.45681 18.0431C4.12331 17.7096 3.91618 17.3187 3.78516 16.8736C3.60888 16.8709 3.46169 16.8632 3.32618 16.8417C2.1673 16.6582 1.25841 15.7493 1.07487 14.5904C1.04136 14.3788 1.04142 14.1388 1.04151 13.804C1.04152 13.7863 1.04152 13.7683 1.04152 13.7501V6.25008C1.04152 6.23183 1.04152 6.21385 1.04151 6.19614C1.04142 5.86139 1.04136 5.62132 1.07487 5.40974C1.25841 4.25086 2.1673 3.34197 3.32618 3.15843C3.46169 3.13696 3.60889 3.12927 3.78516 3.12654C3.91618 2.6815 4.12331 2.29054 4.45681 1.95704C4.95841 1.45544 5.58997 1.2397 6.34006 1.13885C7.06254 1.04172 7.98114 1.04173 9.12079 1.04175ZM3.58478 4.38532C3.56147 4.38744 3.54102 4.38998 3.52172 4.39304C2.89771 4.49187 2.40831 4.98127 2.30948 5.60528C2.29346 5.7064 2.29152 5.83911 2.29152 6.25008V13.7501C2.29152 14.1611 2.29346 14.2938 2.30948 14.3949C2.40831 15.0189 2.89771 15.5083 3.52172 15.6071C3.54102 15.6102 3.56147 15.6127 3.58478 15.6148C3.5415 14.9912 3.54151 14.2496 3.54152 13.3791L3.54152 12.3472C3.54152 12.3468 3.54152 12.3464 3.54152 12.346L3.54152 6.62102C3.54151 5.75052 3.5415 5.00899 3.58478 4.38532ZM4.79152 12.6009V13.3334C4.79152 14.5296 4.79285 15.3639 4.87748 15.9933C4.95969 16.6048 5.11006 16.9286 5.3407 17.1592C5.57133 17.3899 5.89514 17.5402 6.50662 17.6225C7.13608 17.7071 7.97034 17.7084 9.16652 17.7084H10.8332C12.0294 17.7084 12.8636 17.7071 13.4931 17.6225C14.1046 17.5402 14.4284 17.3899 14.659 17.1592C14.7857 17.0326 14.8881 16.8778 14.9684 16.6627L13.4002 15.0078C12.9807 14.5651 12.4012 14.5348 11.9598 14.8985L11.7767 15.0494C11.0131 15.6786 9.96215 15.5549 9.32917 14.8127L6.69513 11.724C6.40343 11.382 5.98742 11.3739 5.68964 11.6794L4.79152 12.6009ZM15.1909 15.0802L14.3075 14.148C13.4503 13.2434 12.1287 13.1395 11.1649 13.9338L10.9818 14.0847C10.7688 14.2602 10.4913 14.249 10.2803 14.0016L7.64623 10.9129C6.88645 10.022 5.6158 9.96424 4.79448 10.8069L4.79152 10.81V6.66675C4.79152 5.47057 4.79285 4.63631 4.87748 4.00685C4.95969 3.39537 5.11006 3.07156 5.3407 2.84092C5.57133 2.61029 5.89514 2.45992 6.50662 2.3777C7.13608 2.29308 7.97034 2.29175 9.16652 2.29175H10.8332C12.0294 2.29175 12.8636 2.29308 13.4931 2.3777C14.1046 2.45992 14.4284 2.61029 14.659 2.84092C14.8897 3.07156 15.04 3.39537 15.1222 4.00685C15.2069 4.63631 15.2082 5.47057 15.2082 6.66675V13.3334C15.2082 14.0272 15.2077 14.5993 15.1909 15.0802ZM16.4149 15.6148C16.4382 15.6127 16.4587 15.6102 16.478 15.6071C17.102 15.5083 17.5914 15.0189 17.6902 14.3949C17.7063 14.2938 17.7082 14.1611 17.7082 13.7501V6.25008C17.7082 5.83911 17.7063 5.7064 17.6902 5.60528C17.5914 4.98127 17.102 4.49187 16.478 4.39304C16.4587 4.38998 16.4382 4.38744 16.4149 4.38532C16.4582 5.00899 16.4582 5.75052 16.4582 6.62102V13.3791C16.4582 14.2496 16.4582 14.9912 16.4149 15.6148ZM12.0832 4.79175C11.738 4.79175 11.4582 5.07157 11.4582 5.41675C11.4582 5.76193 11.738 6.04175 12.0832 6.04175C12.4284 6.04175 12.7082 5.76193 12.7082 5.41675C12.7082 5.07157 12.4284 4.79175 12.0832 4.79175ZM10.2082 5.41675C10.2082 4.38121 11.0477 3.54175 12.0832 3.54175C13.1187 3.54175 13.9582 4.38121 13.9582 5.41675C13.9582 6.45228 13.1187 7.29175 12.0832 7.29175C11.0477 7.29175 10.2082 6.45228 10.2082 5.41675Z" fill="#FF6B6B"/>
</svg>
