<svg width="20" height="20" viewBox="0 0 20 20" fill="none" xmlns="http://www.w3.org/2000/svg">
<path fill-rule="evenodd" clip-rule="evenodd" d="M7.70833 7.49984C7.70833 6.23418 8.73435 5.20817 10 5.20817C11.2657 5.20817 12.2917 6.23418 12.2917 7.49984C12.2917 8.76549 11.2657 9.7915 10 9.7915C8.73435 9.7915 7.70833 8.76549 7.70833 7.49984ZM10 6.45817C9.4247 6.45817 8.95833 6.92454 8.95833 7.49984C8.95833 8.07513 9.4247 8.5415 10 8.5415C10.5753 8.5415 11.0417 8.07513 11.0417 7.49984C11.0417 6.92454 10.5753 6.45817 10 6.45817Z" fill="#FF6B6B"/>
<path fill-rule="evenodd" clip-rule="evenodd" d="M10 10.2082C9.00354 10.2082 8.07051 10.4088 7.36347 10.7623C6.69381 11.0971 6.04167 11.6753 6.04167 12.4998L6.04156 12.5519C6.04028 12.9772 6.03813 13.6933 6.71686 14.1846C7.03182 14.4126 7.44741 14.558 7.96224 14.6507C8.48184 14.7441 9.14768 14.7915 10 14.7915C10.8523 14.7915 11.5182 14.7441 12.0378 14.6507C12.5526 14.558 12.9682 14.4126 13.2831 14.1846C13.9619 13.6933 13.9597 12.9772 13.9584 12.5519L13.9583 12.4998C13.9583 11.6753 13.3062 11.0971 12.6365 10.7623C11.9295 10.4088 10.9965 10.2082 10 10.2082ZM7.29167 12.4998C7.29167 12.4039 7.38571 12.1487 7.92249 11.8803C8.42188 11.6306 9.15551 11.4582 10 11.4582C10.8445 11.4582 11.5781 11.6306 12.0775 11.8803C12.6143 12.1487 12.7083 12.4039 12.7083 12.4998C12.7083 13.0036 12.6763 13.0808 12.5502 13.1721C12.4485 13.2457 12.2391 13.3444 11.8164 13.4204C11.3985 13.4956 10.8143 13.5415 10 13.5415C9.18566 13.5415 8.6015 13.4956 8.18359 13.4204C7.76092 13.3444 7.55151 13.2457 7.44981 13.1721C7.32374 13.0808 7.29167 13.0036 7.29167 12.4998Z" fill="#FF6B6B"/>
<path fill-rule="evenodd" clip-rule="evenodd" d="M7.26949 1.7091C8.47277 1.29699 9.21873 1.0415 10 1.0415C10.7813 1.0415 11.5272 1.29699 12.7305 1.7091L13.3367 1.91661C14.5711 2.33917 15.5238 2.66527 16.2058 2.94233C16.5493 3.08189 16.8447 3.21706 17.0825 3.35518C17.3114 3.48809 17.541 3.65387 17.697 3.87612C17.8512 4.0958 17.9309 4.36587 17.981 4.62585C18.0331 4.89614 18.0645 5.22037 18.0847 5.59264C18.125 6.33184 18.125 7.34451 18.125 8.65802V9.99264C18.125 15.0768 14.285 17.5144 12.0014 18.512L11.9788 18.5218C11.6956 18.6456 11.4295 18.7619 11.1237 18.8402C10.8008 18.9228 10.4577 18.9582 10 18.9582C9.54228 18.9582 9.19922 18.9228 8.87634 18.8402C8.57051 18.7619 8.30435 18.6456 8.02119 18.5218L7.99861 18.512C5.71502 17.5144 1.875 15.0768 1.875 9.99264V8.65809C1.875 7.34465 1.875 6.33181 1.91525 5.59264C1.93552 5.22037 1.96693 4.89614 2.01901 4.62585C2.06911 4.36587 2.14884 4.0958 2.30303 3.87612C2.45902 3.65387 2.68862 3.48809 2.91748 3.35518C3.15531 3.21706 3.45065 3.08189 3.79419 2.94233C4.47617 2.66527 5.42885 2.33917 6.66329 1.91662L7.26949 1.7091ZM10 2.2915C9.45188 2.2915 8.91262 2.46787 7.56718 2.92842L7.08984 3.09181C5.82934 3.52329 4.91008 3.83821 4.26466 4.10041C3.9425 4.23129 3.70908 4.34096 3.54524 4.43611C3.46435 4.48309 3.40861 4.52185 3.37139 4.55211C3.33983 4.57776 3.3278 4.59229 3.32608 4.59441C3.32446 4.59703 3.31411 4.61434 3.29952 4.65528C3.28287 4.70204 3.26441 4.76908 3.24643 4.86238C3.21003 5.05125 3.18245 5.31068 3.1634 5.6606C3.12523 6.3616 3.125 7.34011 3.125 8.68038V9.99264C3.125 14.3052 6.34991 16.4277 8.49899 17.3665C8.80856 17.5017 8.98732 17.5783 9.18633 17.6292C9.3764 17.6779 9.60833 17.7082 10 17.7082C10.3917 17.7082 10.6236 17.6779 10.8137 17.6292C11.0127 17.5783 11.1914 17.5017 11.501 17.3665C13.6501 16.4277 16.875 14.3052 16.875 9.99264V8.68038C16.875 7.34011 16.8748 6.3616 16.8366 5.6606C16.8175 5.31068 16.79 5.05125 16.7536 4.86238C16.7356 4.76908 16.7171 4.70204 16.7005 4.65528C16.6859 4.61431 16.6755 4.597 16.6739 4.5944C16.6722 4.59227 16.6601 4.57774 16.6286 4.55211C16.5914 4.52185 16.5356 4.48309 16.4548 4.43611C16.2909 4.34096 16.0575 4.23129 15.7353 4.10041C15.0899 3.83821 14.1707 3.52329 12.9102 3.09181L12.4328 2.92842C11.0874 2.46787 10.5481 2.2915 10 2.2915Z" fill="#FF6B6B"/>
</svg>
