<svg width="24" height="24" viewBox="0 0 24 24" fill="none" xmlns="http://www.w3.org/2000/svg">
<g clip-path="url(#clip0_0_2453)">
<path d="M23.0001 2.99998H13.0001C12.7349 2.99998 12.4805 3.10534 12.293 3.29288C12.1054 3.48041 12.0001 3.73477 12.0001 3.99998V7.26998L9.60007 3.10998C9.42493 2.80456 9.17228 2.55078 8.86763 2.37429C8.56298 2.1978 8.21714 2.10486 7.86507 2.10486C7.51299 2.10486 7.16716 2.1978 6.86251 2.37429C6.55786 2.55078 6.3052 2.80456 6.13007 3.10998L0.130068 13.5C0.0423 13.652 -0.00390625 13.8244 -0.00390625 14C-0.00390625 14.1755 0.0423 14.348 0.130068 14.5C0.218173 14.6526 0.345037 14.7792 0.497814 14.867C0.650592 14.9548 0.823858 15.0007 1.00007 15H5.29007C5.09591 15.6488 4.9982 16.3227 5.00007 17C5.00007 18.8565 5.73757 20.637 7.05032 21.9497C8.36308 23.2625 10.1436 24 12.0001 24C13.8566 24 15.6371 23.2625 16.9498 21.9497C18.2626 20.637 19.0001 18.8565 19.0001 17C19.0019 16.3227 18.9042 15.6488 18.7101 15H23.0001C23.2653 15 23.5196 14.8946 23.7072 14.7071C23.8947 14.5196 24.0001 14.2652 24.0001 14V3.99998C24.0001 3.73477 23.8947 3.48041 23.7072 3.29288C23.5196 3.10534 23.2653 2.99998 23.0001 2.99998ZM2.73007 13L7.86007 4.10998L11.2901 9.99998C10.29 10.1113 9.32568 10.4369 8.46283 10.9546C7.59998 11.4723 6.85889 12.1699 6.29007 13H2.73007ZM12.0001 22C11.0112 22 10.0445 21.7067 9.22222 21.1573C8.39997 20.6079 7.75911 19.827 7.38067 18.9134C7.00223 17.9998 6.90322 16.9944 7.09614 16.0245C7.28907 15.0546 7.76527 14.1637 8.46454 13.4644C9.1638 12.7652 10.0547 12.289 11.0246 12.0961C11.9945 11.9031 12.9999 12.0021 13.9135 12.3806C14.8271 12.759 15.608 13.3999 16.1574 14.2221C16.7068 15.0444 17.0001 16.0111 17.0001 17C17.0001 18.3261 16.4733 19.5978 15.5356 20.5355C14.5979 21.4732 13.3262 22 12.0001 22ZM22.0001 13H17.7401C16.8319 11.7034 15.515 10.7492 14.0001 10.29V4.99998H22.0001V13Z" fill="#FE97B3"/>
</g>
<defs>
<clipPath id="clip0_0_2453">
<rect width="24" height="24" fill="white"/>
</clipPath>
</defs>
</svg>
