<svg width="38" height="38" viewBox="0 0 38 38" fill="none" xmlns="http://www.w3.org/2000/svg">
<g filter="url(#filter0_d_32_1073)">
<rect x="4" y="2" width="30" height="30" rx="15" fill="black" fill-opacity="0.15" shape-rendering="crispEdges"/>
<path fill-rule="evenodd" clip-rule="evenodd" d="M19.4277 7C18.3139 7 17.2995 7.6007 15.2708 8.80211L14.5847 9.20846C12.5559 10.4099 11.5416 11.0106 10.9847 12C10.4277 12.9894 10.4277 14.1908 10.4277 16.5937V17.4063C10.4277 19.8092 10.4277 21.0106 10.9847 22C11.5416 22.9894 12.5559 23.5901 14.5847 24.7915L15.2708 25.1979C17.2995 26.3993 18.3139 27 19.4277 27C20.5416 27 21.5559 26.3993 23.5847 25.1979L24.2708 24.7915C26.2995 23.5901 27.3139 22.9894 27.8708 22C28.4277 21.0106 28.4277 19.8092 28.4277 17.4063V16.5937C28.4277 14.1908 28.4277 12.9894 27.8708 12C27.3139 11.0106 26.2995 10.4099 24.2708 9.20846L23.5847 8.80211C21.5559 7.6007 20.5416 7 19.4277 7ZM15.6777 17C15.6777 14.9289 17.3567 13.25 19.4277 13.25C21.4988 13.25 23.1777 14.9289 23.1777 17C23.1777 19.0711 21.4988 20.75 19.4277 20.75C17.3567 20.75 15.6777 19.0711 15.6777 17Z" fill="#FF6B6B"/>
</g>
<defs>
<filter id="filter0_d_32_1073" x="0" y="0" width="38" height="38" filterUnits="userSpaceOnUse" color-interpolation-filters="sRGB">
<feFlood flood-opacity="0" result="BackgroundImageFix"/>
<feColorMatrix in="SourceAlpha" type="matrix" values="0 0 0 0 0 0 0 0 0 0 0 0 0 0 0 0 0 0 127 0" result="hardAlpha"/>
<feOffset dy="2"/>
<feGaussianBlur stdDeviation="2"/>
<feComposite in2="hardAlpha" operator="out"/>
<feColorMatrix type="matrix" values="0 0 0 0 0 0 0 0 0 0 0 0 0 0 0 0 0 0 0.05 0"/>
<feBlend mode="normal" in2="BackgroundImageFix" result="effect1_dropShadow_32_1073"/>
<feBlend mode="normal" in="SourceGraphic" in2="effect1_dropShadow_32_1073" result="shape"/>
</filter>
</defs>
</svg>
