<svg width="20" height="20" viewBox="0 0 20 20" fill="none" xmlns="http://www.w3.org/2000/svg">
<path d="M16.449 3.55098C14.2143 1.31634 10.5912 1.31634 8.3566 3.55098L7.75589 4.15169C7.51182 4.39577 7.51182 4.7915 7.75589 5.03558C7.99997 5.27965 8.3957 5.27965 8.63978 5.03558L9.24048 4.43487C10.987 2.68838 13.8186 2.68838 15.5651 4.43487C17.3116 6.18136 17.3116 9.01298 15.5651 10.7595L14.9644 11.3602C14.7203 11.6043 14.7203 12 14.9644 12.2441C15.2085 12.4881 15.6042 12.4881 15.8483 12.2441L16.449 11.6434C18.6836 9.40871 18.6836 5.78563 16.449 3.55098Z" fill="#FF6B6B"/>
<path d="M5.03558 7.75589C5.27965 7.99997 5.27965 8.3957 5.03558 8.63978L4.43487 9.24048C2.68838 10.987 2.68838 13.8186 4.43487 15.5651C6.18136 17.3116 9.01298 17.3116 10.7595 15.5651L11.3602 14.9644C11.6043 14.7203 12 14.7203 12.2441 14.9644C12.4881 15.2085 12.4881 15.6042 12.2441 15.8483L11.6434 16.449C9.40871 18.6836 5.78563 18.6836 3.55099 16.449C1.31634 14.2143 1.31634 10.5912 3.55099 8.3566L4.15169 7.75589C4.39577 7.51182 4.7915 7.51182 5.03558 7.75589Z" fill="#FF6B6B"/>
<path d="M12.244 7.75589C12.4881 7.99997 12.4881 8.3957 12.244 8.63978L8.63978 12.244C8.3957 12.4881 7.99997 12.4881 7.75589 12.244C7.51182 11.9999 7.51182 11.6042 7.75589 11.3601L11.3601 7.75589C11.6042 7.51182 11.9999 7.51182 12.244 7.75589Z" fill="#FF6B6B"/>
</svg>
