<svg width="20" height="20" viewBox="0 0 20 20" fill="none" xmlns="http://www.w3.org/2000/svg">
<path fill-rule="evenodd" clip-rule="evenodd" d="M9.40973 2.75658C9.08162 3.18504 8.71127 3.8461 8.17332 4.81113L7.90023 5.30101C7.88377 5.33054 7.86752 5.35979 7.85143 5.38875C7.60081 5.83976 7.38929 6.22041 7.04846 6.47915C6.70395 6.74068 6.28397 6.83506 5.79588 6.94475C5.76451 6.9518 5.73286 6.95891 5.70093 6.96614L5.17064 7.08612C4.12454 7.32281 3.41288 7.48566 2.92544 7.67776C2.44977 7.86521 2.34937 8.0188 2.3111 8.14187C2.2707 8.27176 2.2695 8.47044 2.55387 8.92216C2.84249 9.38065 3.32941 9.95252 4.04152 10.7852L4.40303 11.208C4.42404 11.2326 4.44487 11.2568 4.46548 11.2809C4.80132 11.6726 5.08135 11.9993 5.2098 12.4123C5.33747 12.8229 5.29516 13.2543 5.24385 13.7774C5.2407 13.8095 5.23752 13.842 5.23434 13.8747L5.17968 14.4388C5.07211 15.5489 4.99957 16.3133 5.0241 16.864C5.04858 17.4135 5.16467 17.5655 5.25696 17.6355C5.33905 17.6979 5.49079 17.7668 5.98515 17.6252C6.48754 17.4812 7.15525 17.1758 8.13477 16.7248L8.63128 16.4962C8.66186 16.4821 8.69215 16.4681 8.72217 16.4542C9.17617 16.2443 9.57004 16.0622 9.99977 16.0622C10.4295 16.0622 10.8234 16.2443 11.2774 16.4542C11.3074 16.4681 11.3377 16.4821 11.3683 16.4962L11.8648 16.7248C12.8443 17.1758 13.512 17.4812 14.0144 17.6252C14.5087 17.7668 14.6605 17.6979 14.7426 17.6355C14.8349 17.5655 14.951 17.4135 14.9754 16.864C15 16.3133 14.9274 15.5489 14.8199 14.4388L14.7652 13.8747C14.762 13.842 14.7588 13.8095 14.7557 13.7775C14.7044 13.2543 14.6621 12.8229 14.7897 12.4123C14.9182 11.9993 15.1982 11.6726 15.5341 11.2809C15.5547 11.2568 15.5755 11.2326 15.5965 11.208L15.958 10.7852C16.6701 9.95252 17.157 9.38065 17.4457 8.92216C17.73 8.47044 17.7288 8.27176 17.6884 8.14187C17.6502 8.0188 17.5498 7.86521 17.0741 7.67776C16.5867 7.48566 15.875 7.32281 14.8289 7.08612L14.2986 6.96614C14.2667 6.95891 14.235 6.9518 14.2037 6.94475C13.7156 6.83506 13.2956 6.74068 12.9511 6.47915C12.6102 6.22041 12.3987 5.83976 12.1481 5.38875C12.132 5.35979 12.1158 5.33054 12.0993 5.30101L11.8262 4.81113C11.2883 3.84609 10.9179 3.18503 10.5898 2.75658C10.262 2.32853 10.0946 2.2915 9.99977 2.2915C9.90497 2.2915 9.73753 2.32853 9.40973 2.75658ZM8.41731 1.99658C8.81454 1.47786 9.30552 1.0415 9.99977 1.0415C10.694 1.0415 11.185 1.47786 11.5822 1.99658C11.9726 2.50628 12.3864 3.24881 12.8923 4.15631L13.1911 4.69238C13.5182 5.2792 13.6019 5.40385 13.7069 5.48353C13.8079 5.56023 13.9383 5.60301 14.5745 5.74695L15.1578 5.87894C16.1375 6.10057 16.9446 6.28316 17.5324 6.51481C18.1426 6.75526 18.6765 7.10967 18.8821 7.77069C19.0855 8.4249 18.8569 9.02678 18.5035 9.58809C18.1602 10.1335 17.6118 10.7747 16.9419 11.558L16.5465 12.0204C16.1157 12.5242 16.0257 12.6475 15.9834 12.7835C15.9402 12.9222 15.9443 13.0825 16.0094 13.7542L16.069 14.3693C16.1704 15.416 16.2532 16.2695 16.2242 16.9196C16.1947 17.5812 16.0444 18.2166 15.4984 18.6312C14.9421 19.0534 14.2949 19.0059 13.6701 18.8268C13.0642 18.6532 12.309 18.3055 11.3918 17.8832L10.8455 17.6316C10.2477 17.3563 10.1197 17.3122 9.99977 17.3122C9.87983 17.3122 9.75185 17.3563 9.15407 17.6316L8.60769 17.8832C7.69057 18.3055 6.9353 18.6532 6.32946 18.8268C5.70465 19.0059 5.05742 19.0534 4.50116 18.6312C3.95509 18.2166 3.80481 17.5812 3.77534 16.9196C3.74638 16.2695 3.82911 15.416 3.93056 14.3693L3.99017 13.7542C4.05526 13.0825 4.05931 12.9222 4.01618 12.7835C3.97387 12.6475 3.88387 12.5242 3.45303 12.0204L3.05763 11.558C2.38775 10.7747 1.83936 10.1335 1.49603 9.5881C1.14267 9.02678 0.914038 8.4249 1.11748 7.77069C1.32304 7.10967 1.85698 6.75526 2.46714 6.51481C3.05494 6.28316 3.86204 6.10057 4.84174 5.87894L4.89479 5.86694L5.42508 5.74695C6.06128 5.60301 6.19162 5.56023 6.29265 5.48353C6.39761 5.40385 6.4813 5.2792 6.80841 4.69239L7.10725 4.1563C7.6131 3.2488 8.02699 2.50628 8.41731 1.99658Z" fill="#FF6B6B"/>
</svg>
