<svg width="20" height="20" viewBox="0 0 20 20" fill="none" xmlns="http://www.w3.org/2000/svg">
<path fill-rule="evenodd" clip-rule="evenodd" d="M9.40924 2.75658C9.08113 3.18504 8.71078 3.8461 8.17283 4.81113L7.89975 5.30101C7.88329 5.33054 7.86703 5.35979 7.85094 5.38875C7.60033 5.83976 7.38881 6.22041 7.04797 6.47915C6.70346 6.74068 6.28348 6.83506 5.79539 6.94475C5.76402 6.9518 5.73237 6.95891 5.70044 6.96614L5.17015 7.08612C4.12405 7.32281 3.4124 7.48566 2.92495 7.67776C2.44928 7.86521 2.34888 8.0188 2.31061 8.14187C2.27022 8.27176 2.26901 8.47044 2.55338 8.92216C2.84201 9.38065 3.32892 9.95252 4.04103 10.7852L4.40255 11.208C4.42356 11.2326 4.44438 11.2568 4.46499 11.2809C4.80083 11.6726 5.08086 11.9993 5.20931 12.4123C5.33698 12.8229 5.29467 13.2543 5.24336 13.7774C5.24021 13.8095 5.23703 13.842 5.23385 13.8747L5.1792 14.4388C5.07162 15.5489 4.99908 16.3133 5.02361 16.864C5.0481 17.4135 5.16418 17.5655 5.25647 17.6355C5.33856 17.6979 5.49031 17.7668 5.98467 17.6252C6.48706 17.4812 7.15476 17.1758 8.13428 16.7248L8.63079 16.4962C8.66137 16.4821 8.69166 16.4681 8.72168 16.4542C9.17568 16.2443 9.56955 16.0622 9.99928 16.0622C10.429 16.0622 10.8229 16.2443 11.2769 16.4542C11.3069 16.4681 11.3372 16.4821 11.3678 16.4962L11.8643 16.7248C12.8438 17.1758 13.5115 17.4812 14.0139 17.6252C14.5083 17.7668 14.66 17.6979 14.7421 17.6355C14.8344 17.5655 14.9505 17.4135 14.9749 16.864C14.9995 16.3133 14.9269 15.5489 14.8194 14.4388L14.7647 13.8747C14.7615 13.842 14.7583 13.8095 14.7552 13.7775C14.7039 13.2543 14.6616 12.8229 14.7893 12.4123C14.9177 11.9993 15.1977 11.6726 15.5336 11.2809C15.5542 11.2568 15.575 11.2326 15.596 11.208L15.9575 10.7852C16.6696 9.95252 17.1566 9.38065 17.4452 8.92216C17.7295 8.47044 17.7283 8.27176 17.688 8.14187C17.6497 8.0188 17.5493 7.86521 17.0736 7.67776C16.5862 7.48566 15.8745 7.32281 14.8284 7.08612L14.2981 6.96614C14.2662 6.95891 14.2345 6.9518 14.2032 6.94475C13.7151 6.83506 13.2951 6.74068 12.9506 6.47915C12.6098 6.22041 12.3982 5.83976 12.1476 5.38875C12.1315 5.35979 12.1153 5.33054 12.0988 5.30101L11.8257 4.81113C11.2878 3.84609 10.9174 3.18503 10.5893 2.75658C10.2615 2.32853 10.0941 2.2915 9.99928 2.2915C9.90448 2.2915 9.73704 2.32853 9.40924 2.75658ZM8.41682 1.99658C8.81405 1.47786 9.30503 1.0415 9.99928 1.0415C10.6935 1.0415 11.1845 1.47786 11.5817 1.99658C11.9721 2.50628 12.386 3.24881 12.8918 4.15631L13.1906 4.69238C13.5178 5.2792 13.6014 5.40385 13.7064 5.48353C13.8074 5.56023 13.9378 5.60301 14.574 5.74695L15.1573 5.87894C16.137 6.10057 16.9441 6.28316 17.5319 6.51481C18.1421 6.75526 18.676 7.10967 18.8816 7.77069C19.085 8.4249 18.8564 9.02678 18.503 9.58809C18.1597 10.1335 17.6113 10.7747 16.9414 11.558L16.546 12.0204C16.1152 12.5242 16.0252 12.6475 15.9829 12.7835C15.9397 12.9222 15.9438 13.0825 16.0089 13.7542L16.0685 14.3693C16.1699 15.416 16.2527 16.2695 16.2237 16.9196C16.1942 17.5812 16.044 18.2166 15.4979 18.6312C14.9416 19.0534 14.2944 19.0059 13.6696 18.8268C13.0638 18.6532 12.3085 18.3055 11.3914 17.8832L10.845 17.6316C10.2472 17.3563 10.1192 17.3122 9.99928 17.3122C9.87934 17.3122 9.75136 17.3563 9.15358 17.6316L8.6072 17.8832C7.69008 18.3055 6.93481 18.6532 6.32897 18.8268C5.70416 19.0059 5.05693 19.0534 4.50067 18.6312C3.9546 18.2166 3.80433 17.5812 3.77485 16.9196C3.74589 16.2695 3.82863 15.416 3.93008 14.3693L3.98968 13.7542C4.05477 13.0825 4.05882 12.9222 4.01569 12.7835C3.97338 12.6475 3.88338 12.5242 3.45255 12.0204L3.05714 11.558C2.38727 10.7747 1.83887 10.1335 1.49554 9.5881C1.14218 9.02678 0.913549 8.4249 1.11699 7.77069C1.32255 7.10967 1.85649 6.75526 2.46665 6.51481C3.05445 6.28316 3.86155 6.10057 4.84125 5.87894L4.8943 5.86694L5.42459 5.74695C6.06079 5.60301 6.19113 5.56023 6.29216 5.48353C6.39713 5.40385 6.48081 5.2792 6.80793 4.69239L7.10676 4.1563C7.61261 3.2488 8.0265 2.50628 8.41682 1.99658Z" fill="#FF6B6B"/>
</svg>
