<svg width="24" height="24" viewBox="0 0 24 24" fill="none" xmlns="http://www.w3.org/2000/svg">
<g clip-path="url(#clip0_0_2457)">
<path d="M21 3.99994H17.9C17.6679 2.87135 17.0538 1.85729 16.1613 1.12866C15.2687 0.400029 14.1522 0.00139349 13 -6.10352e-05L11 -6.10352e-05C9.8478 0.00139349 8.73132 0.400029 7.83875 1.12866C6.94618 1.85729 6.3321 2.87135 6.1 3.99994H3C2.73478 3.99994 2.48043 4.1053 2.29289 4.29283C2.10536 4.48037 2 4.73472 2 4.99994C2 5.26516 2.10536 5.51951 2.29289 5.70705C2.48043 5.89458 2.73478 5.99994 3 5.99994H4V18.9999C4.00159 20.3255 4.52888 21.5964 5.46622 22.5337C6.40356 23.4711 7.67441 23.9984 9 23.9999H15C16.3256 23.9984 17.5964 23.4711 18.5338 22.5337C19.4711 21.5964 19.9984 20.3255 20 18.9999V5.99994H21C21.2652 5.99994 21.5196 5.89458 21.7071 5.70705C21.8946 5.51951 22 5.26516 22 4.99994C22 4.73472 21.8946 4.48037 21.7071 4.29283C21.5196 4.1053 21.2652 3.99994 21 3.99994ZM11 1.99994H13C13.6203 2.0007 14.2251 2.19332 14.7316 2.55138C15.2381 2.90945 15.6214 3.41543 15.829 3.99994H8.171C8.37858 3.41543 8.7619 2.90945 9.26839 2.55138C9.77487 2.19332 10.3797 2.0007 11 1.99994ZM18 18.9999C18 19.7956 17.6839 20.5587 17.1213 21.1213C16.5587 21.6839 15.7956 21.9999 15 21.9999H9C8.20435 21.9999 7.44129 21.6839 6.87868 21.1213C6.31607 20.5587 6 19.7956 6 18.9999V5.99994H18V18.9999Z" fill="#FF2222"/>
<path d="M10 17.9999C10.2652 17.9999 10.5196 17.8946 10.7071 17.707C10.8946 17.5195 11 17.2652 11 16.9999V10.9999C11 10.7347 10.8946 10.4804 10.7071 10.2928C10.5196 10.1053 10.2652 9.99994 10 9.99994C9.73478 9.99994 9.48043 10.1053 9.29289 10.2928C9.10536 10.4804 9 10.7347 9 10.9999V16.9999C9 17.2652 9.10536 17.5195 9.29289 17.707C9.48043 17.8946 9.73478 17.9999 10 17.9999Z" fill="#FF2222"/>
<path d="M14 17.9999C14.2652 17.9999 14.5196 17.8946 14.7071 17.707C14.8946 17.5195 15 17.2652 15 16.9999V10.9999C15 10.7347 14.8946 10.4804 14.7071 10.2928C14.5196 10.1053 14.2652 9.99994 14 9.99994C13.7348 9.99994 13.4804 10.1053 13.2929 10.2928C13.1054 10.4804 13 10.7347 13 10.9999V16.9999C13 17.2652 13.1054 17.5195 13.2929 17.707C13.4804 17.8946 13.7348 17.9999 14 17.9999Z" fill="#FF2222"/>
</g>
<defs>
<clipPath id="clip0_0_2457">
<rect width="24" height="24" fill="white"/>
</clipPath>
</defs>
</svg>
